<svg width="1306" height="404" viewBox="0 0 1306 404" fill="none" xmlns="http://www.w3.org/2000/svg">
<path d="M235.214 403.911H201.964L199.198 319.282L151.227 317.708L148.411 403.911H115.151L117.897 316.625L118.949 283.429L152.309 284.492L198.116 285.926L231.526 286.989L232.588 320.365L235.214 403.911Z" fill="#011627"/>
<path d="M177.544 33.4158L145.427 52.9663L78.2455 93.8519L42.791 115.428C42.8211 115.588 42.8411 115.758 42.8712 115.929C44.695 127.549 46.2282 139.159 46.2282 150.779C46.2282 151.25 46.2182 151.721 46.2182 152.193L83.6869 129.454L177.564 72.4666L209.682 52.9763L177.544 33.4158Z" fill="#011627"/>
<path d="M271.228 90.433L209.659 52.9663L177.541 33.4158L145.424 52.9663L177.541 72.4566L265.717 125.985L302.814 148.493C303.005 136.512 304.759 124.531 306.663 112.55C306.693 112.39 306.713 112.219 306.743 112.039L271.228 90.433Z" fill="#011627"/>
<path d="M124.653 215.157C134.421 215.157 142.34 207.234 142.34 197.461C142.34 187.688 134.421 179.765 124.653 179.765C114.885 179.765 106.966 187.688 106.966 197.461C106.966 207.234 114.885 215.157 124.653 215.157Z" fill="#2EC5B6"/>
<path d="M228.551 215.157C238.32 215.157 246.239 207.234 246.239 197.461C246.239 187.688 238.32 179.765 228.551 179.765C218.783 179.765 210.864 187.688 210.864 197.461C210.864 207.234 218.783 215.157 228.551 215.157Z" fill="#2EC5B6"/>
<path d="M121.565 27.8217H131.827V-0.000200272H119.852C71.3298 -0.000200272 37.0879 19.7308 37.0879 66.271C37.0879 80.4376 39.3827 94.1029 41.6575 108.269C42.0483 110.656 42.4191 113.032 42.7799 115.418C42.8099 115.578 42.83 115.749 42.86 115.919C44.6839 127.539 46.2171 139.149 46.2171 150.769C46.2171 151.24 46.2071 151.712 46.2071 152.183V152.634C45.7762 169.818 39.0821 188.206 0 188.206V214.013C40.5051 214.013 46.2171 235.759 46.2171 251.439C46.2171 264.653 44.1026 277.858 41.888 291.052C41.8078 291.503 41.7377 291.964 41.6575 292.415C39.6232 304.627 37.5689 317.249 37.1681 329.551C37.118 331.005 37.0879 332.449 37.0879 333.902C37.0879 383.44 70.3578 402.078 115.543 403.161C116.966 403.201 118.399 403.211 119.852 403.211H131.827V375.39H121.565C89.6082 375.39 76.4706 359.709 76.4706 331.376C76.4706 328.829 76.5508 326.303 76.6811 323.786C77.2022 314.302 78.6653 304.938 80.459 294.962C82.7338 282.81 84.4574 270.168 84.4574 256.502C85.0387 224.129 69.0551 206.934 43.3711 201.37V200.347C69.0451 194.282 85.0286 178.09 84.4574 145.706C84.4574 140.232 84.1768 134.999 83.7058 129.875C83.6958 129.725 83.6758 129.595 83.6658 129.444C82.9543 121.945 81.8018 114.686 80.459 107.257C79.6573 102.946 78.9058 98.6446 78.3045 94.3636C78.2744 94.1931 78.2544 94.0327 78.2344 93.8522C77.1521 86.2325 76.4606 78.6931 76.4606 71.3441C76.4707 44.0135 87.8846 27.8217 121.565 27.8217Z" fill="#011627"/>
<path d="M302.796 150.769C302.796 150.167 302.796 149.546 302.806 148.944C302.806 148.794 302.806 148.634 302.816 148.493C303.007 136.512 304.761 124.531 306.665 112.55C306.695 112.39 306.715 112.219 306.745 112.039C306.775 111.909 306.785 111.788 306.815 111.648C306.985 110.525 307.176 109.392 307.366 108.269C309.27 96.4888 311.164 85.0493 311.735 73.3791C311.865 71.023 311.926 68.6569 311.926 66.2708C311.926 21.2344 279.848 1.30294 233.811 0.0497022C232.278 0.0296504 230.725 -0.000427246 229.172 -0.000427246H217.187V27.8214H227.458C261.139 27.8214 272.553 44.0133 272.553 71.3439C272.553 73.9506 272.463 76.5774 272.302 79.2342C272.092 82.9338 271.711 86.6835 271.24 90.4332C271.21 90.6036 271.2 90.764 271.17 90.9445C270.489 96.3485 269.577 101.813 268.554 107.257C267.432 113.553 266.42 119.709 265.729 125.985C265.698 126.115 265.688 126.266 265.678 126.396C264.977 132.622 264.566 138.979 264.566 145.696C264.005 178.08 279.988 194.271 305.662 200.337V201.36C279.988 206.924 264.005 224.129 264.566 256.492C264.566 270.157 266.28 282.8 268.564 294.951C270.839 307.584 272.563 319.234 272.563 331.376C272.563 359.709 259.435 375.389 227.468 375.389H217.197V403.211H229.182C276.541 403.211 311.936 384.994 311.936 333.892C311.936 320.237 309.661 306.07 307.376 292.415C305.081 278.76 302.806 265.104 302.806 251.429C302.806 235.749 308.508 214.002 349.044 214.002V188.196C308.498 188.206 302.796 168.465 302.796 150.769Z" fill="#011627"/>
<path d="M452.772 238.635C447.691 241.092 438.762 242.315 429.132 242.315C400.412 242.315 382.374 225.491 382.374 198.161C382.374 173.627 399.36 152.613 432.98 152.613C439.113 152.613 446.639 153.485 452.772 155.591L448.393 178.72C445.416 177.497 441.218 176.615 434.734 176.615C422.999 176.615 414.592 184.676 414.772 197.118C414.772 211.134 424.402 217.791 435.616 217.791C441.047 217.791 445.426 217.09 449.455 215.516L452.772 238.635Z" fill="#011627"/>
<path d="M504.779 242.484C479.035 242.484 459.073 226.192 459.073 198.16C459.073 170.649 477.111 152.432 506.533 152.432C533.5 152.432 551.367 170.649 551.367 196.586C551.367 227.947 528.95 242.484 504.96 242.484H504.779ZM505.661 220.237C514.239 220.237 518.799 211.304 518.799 197.458C518.799 185.547 514.951 174.679 505.661 174.679C495.159 174.679 491.652 186.069 491.652 197.458C491.652 210.421 495.85 220.237 505.491 220.237H505.661Z" fill="#011627"/>
<path d="M654.514 115.998V213.41C654.514 224.097 654.865 234.785 655.216 240.57H627.017L625.794 229.01H625.443C619.841 238.645 609.329 242.505 599.529 242.505C579.567 242.505 562.932 225.16 562.932 198.18C562.752 169.095 581.14 152.452 601.453 152.452C610.913 152.452 618.619 155.259 622.467 160.864H622.818V115.998H654.514ZM622.818 191.683C622.818 190.46 622.818 188.876 622.637 187.653C621.415 181.517 616.855 176.614 610.201 176.614C599.699 176.614 594.969 186.079 594.969 197.288C594.969 210.602 601.453 217.44 610.031 217.44C616.515 217.44 621.234 212.888 622.287 207.103C622.808 205.349 622.808 203.424 622.808 201.318V191.683H622.818Z" fill="#011627"/>
<path d="M699.69 208.498C700.742 215.336 710.723 219.186 721.927 219.186C729.984 219.186 737.69 218.313 745.396 215.857L749.424 236.881C739.093 240.912 727.889 242.315 717.207 242.315C686.913 242.315 669.747 225.673 669.747 198.342C669.747 178.37 682.704 152.443 714.401 152.443C742.249 152.443 754.154 172.946 754.154 196.597C754.154 201.681 753.453 206.413 752.932 208.508H699.69V208.498ZM725.083 187.123C725.083 182.22 722.809 173.107 712.828 173.107C703.548 173.107 699.87 181.689 699.339 187.123H725.083Z" fill="#011627"/>
<path d="M793.027 154.371L802.307 190.985C804.061 197.823 805.283 204.48 806.335 211.308H806.856C807.909 204.3 808.961 198.164 810.705 190.985L819.283 154.371H852.382L821.036 240.573H789.34L758.695 154.371H793.027Z" fill="#011627"/>
<path d="M914.561 115.998H946.257V240.57H914.561V115.998Z" fill="#011627"/>
<path d="M965.698 115.998H997.395V240.57H965.698V115.998Z" fill="#011627"/>
<path d="M1093.54 219.535C1093.54 228.117 1094.06 236.178 1094.94 240.559H1066.4L1064.83 233.03H1064.13C1058.17 239.867 1049.59 242.494 1040.31 242.494C1022.62 242.494 1011.77 229.701 1011.77 215.334C1011.77 192.204 1032.61 181.868 1061.85 181.868V181.166C1061.85 177.667 1059.22 173.807 1047.67 173.807C1038.56 173.807 1029.11 176.965 1023.33 180.113L1017.9 160.312C1023.33 157.334 1035.76 152.432 1053.62 152.432C1083.22 152.432 1093.55 168.904 1093.55 190.45V219.535H1093.54ZM1062.88 201.137C1049.93 201.137 1042.74 204.636 1042.74 212.346C1042.74 217.78 1046.25 220.578 1051.67 220.578C1056.22 220.578 1060.95 217.419 1062.52 212.697C1062.87 211.294 1062.87 209.72 1062.87 208.146V201.137H1062.88Z" fill="#011627"/>
<path d="M1197.73 227.949C1197.73 243.018 1194.75 257.385 1184.24 266.488C1174.43 274.9 1161.3 277.176 1147.99 277.176C1136.09 277.176 1124 274.9 1115.94 270.689L1121.9 246.858C1127.15 249.835 1136.96 253.164 1146.76 253.164C1157.96 253.164 1166.72 247.028 1166.72 233.714V229.864H1166.37C1161.12 236.351 1153.41 239.499 1144.83 239.499C1123.82 239.499 1108.59 222.675 1108.59 197.621C1108.59 170.46 1126.1 152.414 1147.64 152.414C1158.14 152.414 1165.33 156.444 1169.88 163.623H1170.23L1171.28 154.339H1198.43C1198.08 159.773 1197.73 167.132 1197.73 180.797V227.949ZM1166.21 189.931C1166.21 188.527 1166.03 187.123 1165.86 185.9C1164.46 179.594 1160.43 176.085 1154.66 176.085C1147.13 176.085 1140.65 183.444 1140.65 197.109C1140.65 208.318 1145.9 216.559 1154.66 216.559C1160.44 216.559 1164.64 212.71 1165.69 207.977C1166.21 206.223 1166.21 203.426 1166.21 201.491V189.931Z" fill="#011627"/>
<path d="M1242.91 208.498C1243.96 215.336 1253.95 219.186 1265.15 219.186C1273.21 219.186 1280.91 218.313 1288.62 215.857L1292.65 236.881C1282.32 240.912 1271.11 242.315 1260.43 242.315C1230.14 242.315 1212.97 225.673 1212.97 198.342C1212.97 178.37 1225.93 152.443 1257.62 152.443C1285.47 152.443 1297.38 172.946 1297.38 196.597C1297.38 201.681 1296.68 206.413 1296.15 208.508H1242.91V208.498ZM1268.31 187.123C1268.31 182.22 1266.03 173.107 1256.05 173.107C1246.77 173.107 1243.09 181.689 1242.56 187.123H1268.31Z" fill="#011627"/>
<path d="M879.188 145.428H879.358C889.169 145.428 895.472 138.771 895.472 130.539C895.291 121.777 889.169 115.47 879.358 115.47C869.547 115.47 863.244 121.777 863.244 130.539C863.254 138.771 869.387 145.428 879.188 145.428Z" fill="#2EC5B6"/>
<path d="M836.107 145.428H836.277C846.088 145.428 852.391 138.771 852.391 130.539C852.21 121.777 846.088 115.47 836.277 115.47C826.466 115.47 820.163 121.777 820.163 130.539C820.173 138.771 826.306 145.428 836.107 145.428Z" fill="#2EC5B6"/>
<path d="M774.639 145.428H774.809C784.62 145.428 790.923 138.771 790.923 130.539C790.743 121.777 784.62 115.47 774.809 115.47C764.999 115.47 758.695 121.777 758.695 130.539C758.705 138.771 764.838 145.428 774.639 145.428Z" fill="#2EC5B6"/>
<path d="M895.132 154.371H863.435V240.573H895.132V154.371Z" fill="#011627"/>
<path d="M706.801 342.723L711.704 328.588H732.568L737.444 342.723H745.998L726.778 289.313H717.468L698.247 342.723H706.801ZM714.051 321.807L721.927 299.014H722.345L730.22 321.807H714.051ZM760.883 318.939C760.883 312.549 764.795 308.898 770.219 308.898C775.513 308.898 778.721 312.367 778.721 318.182V342.723H786.519V317.243C786.519 307.333 781.068 302.144 772.879 302.144C766.855 302.144 762.917 304.934 761.065 309.185H760.57V302.665H753.085V342.723H760.883V318.939ZM800.471 357.64C806.913 357.64 811.007 354.276 813.302 348.069L829.862 302.743L821.439 302.665L811.294 333.751H810.877L800.732 302.665H792.387L807.043 343.244L806.078 345.904C804.096 351.094 801.306 351.563 797.029 350.39L795.151 356.779C796.09 357.223 798.124 357.64 800.471 357.64ZM852.649 343.531C863.941 343.531 871.321 335.264 871.321 322.876C871.321 310.411 863.941 302.144 852.649 302.144C841.357 302.144 833.976 310.411 833.976 322.876C833.976 335.264 841.357 343.531 852.649 343.531ZM852.675 336.985C845.295 336.985 841.852 330.544 841.852 322.85C841.852 315.183 845.295 308.663 852.675 308.663C860.003 308.663 863.446 315.183 863.446 322.85C863.446 330.544 860.003 336.985 852.675 336.985ZM887.823 318.939C887.823 312.549 891.735 308.898 897.159 308.898C902.453 308.898 905.661 312.367 905.661 318.182V342.723H913.459V317.243C913.459 307.333 908.008 302.144 899.819 302.144C893.795 302.144 889.857 304.934 888.006 309.185H887.51V302.665H880.025V342.723H887.823V318.939ZM941.181 343.531C949.917 343.531 956.098 339.228 957.872 332.708L950.491 331.378C949.083 335.16 945.693 337.09 941.259 337.09C934.583 337.09 930.097 332.76 929.889 325.041H958.367V322.277C958.367 307.803 949.709 302.144 940.633 302.144C929.471 302.144 922.117 310.645 922.117 322.955C922.117 335.394 929.367 343.531 941.181 343.531ZM929.915 319.199C930.228 313.514 934.348 308.585 940.685 308.585C946.736 308.585 950.7 313.071 950.726 319.199H929.915ZM1003.33 343.531C1012.79 343.531 1018.92 337.846 1019.78 330.048H1012.19C1011.2 334.377 1007.84 336.933 1003.38 336.933C996.782 336.933 992.531 331.43 992.531 322.694C992.531 314.114 996.86 308.715 1003.38 308.715C1008.33 308.715 1011.36 311.845 1012.19 315.6H1019.78C1018.95 307.516 1012.35 302.144 1003.25 302.144C991.957 302.144 984.655 310.645 984.655 322.876C984.655 334.951 991.696 343.531 1003.33 343.531ZM1039.78 343.609C1046.4 343.609 1050.13 340.245 1051.62 337.246H1051.93V342.723H1059.55V316.122C1059.55 304.465 1050.37 302.144 1044 302.144C1036.75 302.144 1030.08 305.064 1027.47 312.367L1034.8 314.036C1035.95 311.193 1038.87 308.455 1044.11 308.455C1049.14 308.455 1051.72 311.089 1051.72 315.626V315.809C1051.72 318.652 1048.8 318.599 1041.61 319.434C1034.02 320.321 1026.24 322.303 1026.24 331.404C1026.24 339.28 1032.16 343.609 1039.78 343.609ZM1041.47 337.35C1037.07 337.35 1033.89 335.368 1033.89 331.509C1033.89 327.336 1037.59 325.849 1042.1 325.25C1044.63 324.911 1050.63 324.233 1051.75 323.111V328.275C1051.75 333.021 1047.97 337.35 1041.47 337.35ZM1077.73 318.939C1077.73 312.549 1081.64 308.898 1087.07 308.898C1092.36 308.898 1095.57 312.367 1095.57 318.182V342.723H1103.37V317.243C1103.37 307.333 1097.92 302.144 1089.73 302.144C1083.7 302.144 1079.77 304.934 1077.91 309.185H1077.42V302.665H1069.93V342.723H1077.73V318.939ZM1133.89 342.723H1141.5V336.49H1142.15C1143.56 339.046 1146.43 343.505 1153.73 343.505C1163.43 343.505 1170.47 335.733 1170.47 322.772C1170.47 309.785 1163.33 302.144 1153.65 302.144C1146.22 302.144 1143.54 306.681 1142.15 309.159H1141.68V289.313H1133.89V342.723ZM1141.53 322.694C1141.53 314.322 1145.18 308.768 1151.98 308.768C1159.05 308.768 1162.6 314.74 1162.6 322.694C1162.6 330.726 1158.95 336.855 1151.98 336.855C1145.28 336.855 1141.53 331.117 1141.53 322.694ZM1204.61 326.11C1204.63 332.917 1199.57 336.151 1195.19 336.151C1190.37 336.151 1187.03 332.656 1187.03 327.206V302.665H1179.23V328.144C1179.23 338.081 1184.68 343.244 1192.37 343.244C1198.4 343.244 1202.49 340.063 1204.35 335.786H1204.76V342.723H1212.43V302.665H1204.61V326.11ZM1222.91 342.723H1230.7V302.665H1222.91V342.723ZM1226.85 296.484C1229.53 296.484 1231.77 294.398 1231.77 291.842C1231.77 289.287 1229.53 287.174 1226.85 287.174C1224.13 287.174 1221.92 289.287 1221.92 291.842C1221.92 294.398 1224.13 296.484 1226.85 296.484ZM1248.99 289.313H1241.2V342.723H1248.99V289.313ZM1274.48 343.505C1281.78 343.505 1284.65 339.046 1286.06 336.49H1286.71V342.723H1294.32V289.313H1286.53V309.159H1286.06C1284.65 306.681 1281.99 302.144 1274.53 302.144C1264.86 302.144 1257.74 309.785 1257.74 322.772C1257.74 335.733 1264.75 343.505 1274.48 343.505ZM1276.2 336.855C1269.24 336.855 1265.61 330.726 1265.61 322.694C1265.61 314.74 1269.16 308.768 1276.2 308.768C1283.01 308.768 1286.66 314.322 1286.66 322.694C1286.66 331.117 1282.93 336.855 1276.2 336.855Z" fill="black"/>
</svg>
