<svg width="100" height="90" viewBox="0 0 100 90" fill="none" xmlns="http://www.w3.org/2000/svg">
<path d="M5 0.000488281H95C96.3261 0.000488281 97.5979 0.527272 98.5356 1.46495C99.4732 2.40264 100 3.67441 100 5.00049V85.0005C100 86.3266 99.4732 87.5983 98.5356 88.536C97.5979 89.4737 96.3261 90.0005 95 90.0005H5C3.67392 90.0005 2.40215 89.4737 1.46447 88.536C0.526784 87.5983 0 86.3266 0 85.0005V5.00049C0 3.67441 0.526784 2.40264 1.46447 1.46495C2.40215 0.527272 3.67392 0.000488281 5 0.000488281ZM50.3 43.4155L18.24 16.1905L11.765 23.8105L50.365 56.5855L88.27 23.7855L81.73 16.2205L50.305 43.4155H50.3Z" fill="white"/>
</svg>
