<svg width="120" height="120" viewBox="0 0 120 120" fill="none" xmlns="http://www.w3.org/2000/svg">
<path d="M119.994 89.4669V113.04C119.995 114.728 119.355 116.353 118.205 117.588C117.054 118.823 115.478 119.575 113.794 119.694C110.881 119.894 108.501 120 106.661 120C47.7514 120 0.000732422 72.2469 0.000732422 13.3336C0.000732422 11.4936 0.100727 9.11358 0.307382 6.20025C0.425525 4.51654 1.17788 2.94032 2.41262 1.78964C3.64737 0.638956 5.27259 -0.000518747 6.96035 0.000245851H30.5324C31.3593 -0.000591422 32.1569 0.305971 32.7704 0.860381C33.384 1.41479 33.7695 2.17746 33.8522 3.00025C34.0055 4.53358 34.1455 5.75358 34.2788 6.68024C35.6037 15.9264 38.3186 24.9191 42.3317 33.3536C42.965 34.6869 42.5517 36.2802 41.3518 37.1336L26.9659 47.4136C35.7618 67.9099 52.0948 84.2439 72.59 93.0402L82.8561 78.6802C83.2758 78.0936 83.888 77.6728 84.586 77.4913C85.2841 77.3097 86.0237 77.379 86.6759 77.6869C95.1089 81.6927 104.099 84.401 113.341 85.7202C114.268 85.8536 115.488 86.0002 117.008 86.1469C117.829 86.2312 118.59 86.6174 119.143 87.2308C119.696 87.8442 120.002 88.641 120.001 89.4669H119.994Z" fill="white"/>
</svg>
