<svg width="90" height="109" viewBox="0 0 90 109" fill="none" xmlns="http://www.w3.org/2000/svg">
<path d="M70.42 69.0601C75.122 64.092 78.2652 57.855 79.461 51.12C80.6569 44.3849 79.8529 37.4471 77.1485 31.164C74.4442 24.8809 69.958 19.528 64.2444 15.7669C58.5308 12.0058 51.8404 10.0013 45 10.0013C38.1596 10.0013 31.4692 12.0058 25.7556 15.7669C20.0421 19.528 15.5558 24.8809 12.8515 31.164C10.1471 37.4471 9.34317 44.3849 10.539 51.12C11.7348 57.855 14.878 64.092 19.58 69.0601C22.2783 64.7543 26.0268 61.2051 30.4734 58.7456C34.9199 56.2862 39.9186 54.9974 45 55.0001C50.0814 54.9974 55.0801 56.2862 59.5267 58.7456C63.9732 61.2051 67.7217 64.7543 70.42 69.0601ZM45 108.64L13.18 76.8201C6.88671 70.5267 2.60093 62.5085 0.864642 53.7794C-0.871648 45.0502 0.0195342 36.0023 3.42549 27.7796C6.83145 19.557 12.5992 12.529 19.9994 7.58432C27.3996 2.63968 36.0999 0.000488281 45 0.000488281C53.9001 0.000488281 62.6004 2.63968 70.0006 7.58432C77.4008 12.529 83.1686 19.557 86.5745 27.7796C89.9805 36.0023 90.8717 45.0502 89.1354 53.7794C87.3991 62.5085 83.1133 70.5267 76.82 76.8201L45 108.64ZM45 50.0001C41.0218 50.0001 37.2065 48.4198 34.3934 45.6067C31.5804 42.7937 30 38.9783 30 35.0001C30 31.0219 31.5804 27.2065 34.3934 24.3935C37.2065 21.5805 41.0218 20.0001 45 20.0001C48.9783 20.0001 52.7936 21.5805 55.6066 24.3935C58.4197 27.2065 60 31.0219 60 35.0001C60 38.9783 58.4197 42.7937 55.6066 45.6067C52.7936 48.4198 48.9783 50.0001 45 50.0001Z" fill="white"/>
</svg>
